<svg xmlns="http://www.w3.org/2000/svg" viewBox="0 0 200 200" fill="none">
  <circle cx="100" cy="106" r="60" fill="#FFE8D9"/>
  <path d="M56 72L38 50L64 44L76 64L56 72Z" fill="#FFE8D9"/>
  <path d="M144 72L162 50L136 44L124 64L144 72Z" fill="#FFE8D9"/>
  <circle cx="82" cy="106" r="6" fill="#2F2434"/>
  <circle cx="118" cy="106" r="6" fill="#2F2434"/>
  <ellipse cx="100" cy="120" rx="8" ry="6" fill="#FF9A66"/>
  <path d="M88 132C94 138 106 138 112 132" stroke="#2F2434" stroke-width="4" stroke-linecap="round"/>
  <path d="M66 86C66 75 75 66 86 66C93 66 99 69 103 76C107 69 113 66 120 66C131 66 140 75 140 86C140 105 118 116 103 128C88 116 66 105 66 86Z" fill="#FF6BA7"/>
</svg>

