<svg xmlns="http://www.w3.org/2000/svg" viewBox="0 0 200 200" fill="none">
  <circle cx="100" cy="108" r="60" fill="#DDF1FF"/>
  <path d="M115 48C96 48 80 64 80 83C80 100 93 114 110 117C90 122 74 140 74 162C74 162 74 162 74 162H116C134 162 148 148 148 130C148 112 134 98 116 98H114C126 93 134 81 134 67C134 56 125 48 115 48Z" fill="#60A5FA"/>
  <circle cx="84" cy="112" r="6" fill="#2F2434"/>
  <circle cx="116" cy="112" r="6" fill="#2F2434"/>
  <path d="M88 132C94 138 106 138 112 132" stroke="#2F2434" stroke-width="4" stroke-linecap="round"/>
  <path d="M62 90C62 79 71 70 82 70C90 70 96 74 100 82C104 74 110 70 118 70C129 70 138 79 138 90C138 110 116 121 100 134C84 121 62 110 62 90Z" fill="#FB7185"/>
</svg>

